<svg xmlns="http://www.w3.org/2000/svg" width="1024" height="1024" viewBox="0 0 1024 1024">
  <rect width="1024" height="1024" rx="224" fill="#173D31"/>
  <path d="M512 162c-156 0-282 126-282 282 0 202 178 344 282 418 104-74 282-216 282-418 0-156-126-282-282-282Z" fill="#D8E8A9"/>
  <path d="M425 311h116c103 0 174 57 174 151 0 98-76 158-184 158h-26v112h-80V311Zm80 72v165h28c61 0 99-27 99-84 0-54-36-81-96-81h-31Z" fill="#173D31"/>
  <path d="M512 808V620" stroke="#173D31" stroke-width="38" stroke-linecap="round"/>
</svg>
